<mxfile host="app.diagrams.net" modified="2023-05-28T21:05:28.047Z" agent="Mozilla/5.0 (Windows NT 10.0; Win64; x64) AppleWebKit/537.36 (KHTML, like Gecko) Chrome/113.0.0.0 Safari/537.36" version="21.3.5" etag="fgVdtHW6ymohWFMAtJJa" type="github">
  <diagram name="PÃ¡gina-1" id="dofYkc37CiA_-DNwTlUI">
    <mxGraphModel>
      <root>
        <mxCell id="0" />
        <mxCell id="1" parent="0" />
      </root>
    </mxGraphModel>
  </diagram>
</mxfile>
